<?xml version="1.0" encoding="utf-8"?>
<!-- Generator: Adobe Illustrator 16.0.0, SVG Export Plug-In . SVG Version: 6.00 Build 0)  -->
<!DOCTYPE svg PUBLIC "-//W3C//DTD SVG 1.1//EN" "http://www.w3.org/Graphics/SVG/1.1/DTD/svg11.dtd">
<svg version="1.1" xmlns="http://www.w3.org/2000/svg" xmlns:xlink="http://www.w3.org/1999/xlink" x="0px" y="0px"
	 width="163.313px" height="138.531px" viewBox="0 0 163.313 138.531" enable-background="new 0 0 163.313 138.531"
	 xml:space="preserve">
<g id="Layer_1">
	<g>
		<g>
			<path d="M32.739,37.716c3.333-10.828,2.579-22.259,0.813-33.302c-1.929,0.532-3.857,1.063-5.786,1.595
				c3.916,12.551,14.143,21.246,27.284,22.528c-0.707-1.707-1.414-3.414-2.121-5.121C44.213,34.43,34.188,44.337,25.077,55.017
				C16.338,65.258,7.719,76.571,4.189,89.78c-1,3.743,4.788,5.33,5.786,1.595c3.401-12.73,11.974-23.477,20.375-33.325
				C39.12,47.771,48.781,38.26,57.171,27.657c1.674-2.115,0.617-4.854-2.121-5.121C44.66,21.523,36.615,14.23,33.552,4.413
				c-1.175-3.768-6.386-2.156-5.786,1.595c1.596,9.976,2.194,20.345-0.813,30.112C25.812,39.829,31.604,41.402,32.739,37.716
				L32.739,37.716z"/>
		</g>
	</g>
	<g>
		<g>
			<path d="M102.076,22.848c10.24,24.205,27.794,44.392,46.367,62.621c2.763,2.711,7.008-1.529,4.242-4.242
				c-18.252-17.914-35.365-37.62-45.429-61.407C105.754,16.267,100.587,19.328,102.076,22.848L102.076,22.848z"/>
		</g>
	</g>
	<g>
		<g>
			<path d="M78.824,40.444c-0.022,7.898-0.313,15.794-0.334,23.692c-0.009,3.236,5.991,3.235,6,0
				c0.02-7.898,0.311-15.793,0.332-23.692C84.832,37.208,78.832,37.208,78.824,40.444L78.824,40.444z"/>
		</g>
	</g>
	<g>
		<g>
			<path d="M7.879,93.47c22.637-7.639,45.842-12.53,69.759-13.32c23.857-0.789,47.681,2.369,71.231,5.808
				c3.782,0.553,5.411-5.229,1.595-5.786c-23.604-3.445-47.34-6.528-71.245-6.063C54.292,74.594,29.85,79.734,6.284,87.685
				C2.639,88.915,4.203,94.71,7.879,93.47L7.879,93.47z"/>
		</g>
	</g>
	<g>
		<g>
			<path d="M114.667,131.667c4.17-36.841,0.757-73.788-7.294-109.874c-0.844-3.775-6.627-2.174-5.786,1.596
				c7.94,35.59,11.191,71.952,7.08,108.278C108.231,135.508,114.236,135.466,114.667,131.667L114.667,131.667z"/>
		</g>
	</g>
</g>
<g id="Layer_2">
	<circle cx="81.657" cy="27.517" r="3.932"/>
</g>
</svg>
